<?xml version="1.0" standalone="no"?><!-- Generator: Adobe Fireworks CS6, Export SVG Extension by Aaron Beall (http://fireworks.abeall.com) . Version: 0.6.1  --><!DOCTYPE svg PUBLIC "-//W3C//DTD SVG 1.1//EN" "http://www.w3.org/Graphics/SVG/1.1/DTD/svg11.dtd"><svg id="Untitled-%u30DA%u30FC%u30B8%201" viewBox="0 0 205 47" style="background-color:#ffffff00" version="1.1"	xmlns="http://www.w3.org/2000/svg" xmlns:xlink="http://www.w3.org/1999/xlink" xml:space="preserve"	x="0px" y="0px" width="205px" height="47px">	<g id="%u30EC%u30A4%u30E4%u30FC%201">		<g>			<g>				<path d="M 42.8068 9.0625 C 42.2568 9.0625 41.8568 9.0625 42 8.7125 C 42.0819 8.5125 42.3434 8.3625 42.6957 8.1125 C 43.1185 7.8124 45.3212 6.4624 45.844 6.1623 C 49.0334 4.1122 49.3652 3.9122 50.3767 3.7622 C 50.8472 3.7122 51.4676 3.6622 51.7133 3.0622 C 52.0407 2.2621 51.4135 1.9621 50.5272 1.5621 C 50.109 1.362 47.8091 0.262 47.5591 0.262 C 47.0591 0.262 46.8954 0.662 46.4246 1.8121 C 45.1966 4.8123 41.3068 9.0625 39.5066 9.0625 L 25.7058 9.0625 C 23.3556 9.0625 21.2965 8.9625 18.8872 8.8625 C 18.5872 8.8625 17.0985 8.7125 16.7485 8.7125 C 16.6485 8.7125 16.5985 8.7125 16.5576 8.8125 C 16.5166 8.9125 16.5166 8.9125 16.6287 9.1273 L 17.2737 9.8727 C 17.352 10.0479 17.4342 10.2134 17.5842 10.2134 C 17.7342 10.2134 18.5295 10.1031 18.702 10.0479 C 19.2021 10.0479 20.6974 9.9375 25.0976 9.9375 L 34.1981 9.9375 C 35.5482 9.9375 35.0514 11.1515 34.3286 12.9173 C 33.38 15.2348 33.0412 16.0625 31.7411 16.0625 L 26.8408 16.0625 C 24.4906 16.0625 22.4631 16.0073 20.0808 15.8418 C 19.7807 15.8418 18.2984 15.6763 17.9484 15.6763 C 17.8483 15.6763 17.7758 15.7314 17.7532 15.7866 C 17.708 15.897 17.708 15.897 17.8137 16.1273 L 18.4587 16.8727 C 18.5398 17.041 18.5763 17.1963 18.7762 17.1963 C 18.9262 17.1963 19.7187 17.0928 19.8899 17.041 C 20.3899 17.041 21.8824 16.9375 26.2326 16.9375 L 31.4329 16.9375 C 32.733 16.9375 32.2881 18.0246 31.9066 18.9564 C 30.9955 21.1824 30.6353 22.0625 29.3352 22.0625 L 18.6846 22.0625 C 16.3344 22.0625 14.3055 22.0107 11.8977 21.9072 C 11.5689 21.8554 10.1323 21.7001 9.7823 21.7001 C 9.6323 21.7001 9.5611 21.7519 9.5188 21.8554 C 9.4975 21.9072 9.5475 21.9072 9.6075 22.1273 L 10.2892 22.9051 C 10.3815 23.0458 10.415 23.2083 10.6151 23.2083 C 10.7651 23.2083 11.5095 23.1 11.7095 23.1 C 12.2317 23.0458 13.7261 22.9375 18.0764 22.9375 L 51.3784 22.9375 C 53.0785 22.9375 54.0786 22.9375 54.2643 22.4838 C 54.4368 22.0625 51.2307 19.267 50.8807 19.267 C 50.4306 19.267 50.1959 19.4741 48.0965 21.1824 C 47.0363 22.0625 46.7863 22.0625 44.5361 22.0625 L 35.3356 22.0625 C 33.9855 22.0625 34.4093 21.0271 35.2145 19.06 C 35.5959 18.1282 36.0832 16.9375 37.4333 16.9375 L 46.5339 16.9375 C 48.234 16.9375 49.3341 16.9375 49.5728 16.3542 C 49.8052 15.7866 47.0116 13.0828 46.5616 13.0828 C 46.1115 13.0828 43.708 15.29 43.1725 15.6211 C 42.5644 16.0073 42.1418 16.0625 40.1416 16.0625 L 37.7915 16.0625 C 36.4914 16.0625 36.8979 15.0693 37.8466 12.7517 C 38.5693 10.986 38.9984 9.9375 40.2985 9.9375 L 55.7495 9.9375 C 57.4496 9.9375 58.4497 9.9375 58.6487 9.4514 C 58.8283 9.0125 55.5127 6.3624 55.2128 6.3624 C 54.7627 6.3624 54.5309 6.5624 52.4553 8.2125 C 51.4073 9.0625 51.1573 9.0625 48.9072 9.0625 L 42.8068 9.0625 L 42.8068 9.0625 ZM 24.1931 31.9375 C 24.8932 31.9375 25.2932 31.9375 24.9758 32.7129 C 24.1294 34.7807 17.3573 41.5526 3.364 43 C 3.164 43 0.8164 43.2381 0.7969 43.2857 C 0.719 43.4762 3.2547 44 6.3049 44 C 9.9551 44 21.0761 43.0952 28.0893 33.9019 C 28.8202 32.9714 28.8837 32.8163 29.1337 32.8163 C 29.3837 32.8163 29.4356 33.1782 29.501 33.385 C 29.6471 34.0053 29.8951 34.9875 31.0431 37.3137 C 33.8203 43.6 40.0997 45.8501 40.3497 45.8501 C 40.5998 45.8501 40.993 45.5001 41.2658 45.2001 C 42.2138 44.3501 44.7371 42.95 45.9532 42.2999 C 46.335 42.0999 48.4126 41.2999 48.4536 41.1999 C 48.4962 41.0957 48.2962 41.0957 48.1962 41.0957 C 47.9961 41.0957 46.8739 41.1499 46.6239 41.1499 C 34.7732 41.1499 30.3277 33.0755 30.6382 32.3168 C 30.7935 31.9375 31.0935 31.9375 31.6936 31.9375 L 45.8944 31.9375 C 47.3445 31.9375 48.5446 31.9375 48.7038 31.5486 C 48.8099 31.2894 46.0668 28.4625 45.3667 28.4625 C 44.8167 28.4625 43.7619 29.3292 43.1623 29.8167 C 41.6023 31.0625 41.5523 31.0625 39.0521 31.0625 L 31.3517 31.0625 C 30.3016 31.0625 30.429 30.6292 30.6286 30.1417 C 30.695 29.9792 31.8262 27.7042 32.0315 27.325 C 32.1923 27.0542 33.3467 25.7 33.4797 25.375 C 33.9896 24.1292 30.2446 23.75 29.5945 23.75 C 29.3445 23.75 28.8945 23.75 28.7393 24.1292 C 28.6506 24.3458 28.6563 24.4542 28.485 25.4833 C 28.4133 26.025 28.2251 26.7292 27.4713 28.5708 C 26.8283 30.1417 26.4514 31.0625 25.1513 31.0625 L 16.2507 31.0625 C 13.9006 31.0625 11.8227 31.0083 9.439 30.8458 C 9.139 30.8458 7.6555 30.6833 7.3054 30.6833 C 7.2054 30.6833 7.1332 30.7375 7.1111 30.7917 C 7.0667 30.9 7.0667 30.9 7.1737 31.1273 L 7.8187 31.8727 C 7.9478 32.0459 7.9812 32.2085 8.1313 32.2085 C 8.2812 32.2085 9.0756 32.1001 9.2257 32.1001 C 9.7979 32.0459 11.2423 31.9375 15.6426 31.9375 L 24.1931 31.9375 L 24.1931 31.9375 ZM 35.5706 6.4624 C 36.5531 4.0622 35.2304 3.2622 33.101 2.1121 C 31.4489 1.262 29.8625 0.862 29.8124 0.862 C 29.7624 0.862 29.592 0.912 29.5715 0.962 C 29.4896 1.162 29.6578 1.362 29.6669 1.4621 C 30.9801 3.2622 31.3344 4.9623 31.4206 5.3623 C 31.9927 8.3625 32.0995 8.7125 32.8495 8.7125 C 34.1996 8.7125 35.1613 7.4624 35.5706 6.4624 L 35.5706 6.4624 Z" fill="#ff5669"/>			</g>			<g>				<path d="M 138.4777 28.8577 C 138.4777 32.102 137.7699 35.0072 136.3561 37.5725 C 134.9419 40.1391 133.1544 42.1075 130.9945 43.4803 C 129.1913 44.6504 127.2301 45.4026 125.1082 45.7378 C 122.9866 46.074 120.7292 46.2412 118.3361 46.2412 L 111.9396 46.2412 C 109.4831 46.2412 107.4732 44.2239 107.4732 41.7584 L 107.4732 15.8867 C 107.4732 13.4212 109.4831 11.404 111.9396 11.404 L 113.7758 11.404 C 116.2329 11.404 120.2518 11.47 122.7069 11.5507 C 122.7069 11.5507 122.9676 11.5597 125.0968 11.8717 C 127.2254 12.1837 129.223 12.9402 131.0877 14.1411 C 133.3725 15.6075 135.1747 17.5844 136.4962 20.0717 C 137.8167 22.56 138.4777 25.4881 138.4777 28.8577 ZM 129.5254 28.7879 C 129.5254 26.4948 129.1336 24.5336 128.3487 22.9029 C 127.5642 21.2731 126.3557 19.9981 124.7234 19.0778 C 123.5425 18.4225 122.398 18.0858 121.1053 17.9514 C 119.0008 17.7321 116.3545 17.9082 116.3545 17.9082 L 116.3545 17.9082 C 116.2651 17.9082 116.2731 39.7141 116.2731 39.7141 C 116.2731 39.7141 118.3697 40.094 121.3584 39.7592 C 122.696 39.6096 123.9304 39.1205 125.1436 38.3565 C 126.573 37.4519 127.6612 36.2044 128.4069 34.6131 C 129.1526 33.0223 129.5254 31.0801 129.5254 28.7879 Z" fill="#ff5669"/>				<path d="M 171.8262 38.3655 C 172.1318 38.1932 172.3726 38.0568 172.5765 37.8778 C 173.0378 37.4728 173.8275 36.5786 174.5647 35.8819 C 175.1556 35.3705 175.8308 34.9408 176.7194 34.9408 C 177.659 34.9408 178.452 35.2214 179.0757 35.7746 C 179.5359 36.1849 180.0848 36.9352 180.0848 38.1846 C 180.0848 38.9724 179.8166 39.8139 179.2668 40.7574 C 178.7577 41.6274 177.9992 42.4603 177.0123 43.2315 C 176.0404 43.9898 174.8206 44.6224 173.3842 45.1105 C 171.9529 45.5977 170.2993 45.8452 168.4711 45.8452 C 164.3756 45.8452 161.3224 44.6632 158.8626 42.1255 C 156.4778 39.6676 155.268 36.326 155.268 32.1927 C 155.268 30.2662 155.5605 28.4465 156.1367 26.7859 C 156.7239 25.0906 157.5974 23.6114 158.7329 22.39 C 159.7478 21.2964 160.809 20.4706 162.6079 19.7645 C 164.5956 18.9833 166.3183 18.6191 168.0287 18.6191 C 170.4072 18.6191 172.587 19.0009 174.6697 20.2327 C 176.5571 21.3496 178.0778 22.8502 179.0264 24.6385 C 179.9627 26.4036 180.136 28.0224 180.2239 29.8687 C 180.3152 31.781 179.35 32.8599 178.4373 33.3333 C 177.3747 33.8851 175.9803 34.1544 174.1767 34.1544 L 163.5542 34.1544 C 163.5717 35.2518 163.9318 36.6859 164.3093 37.1422 C 164.3093 37.1422 165.4604 38.9278 167.8673 39.1381 C 170.3783 39.3571 171.8262 38.3655 171.8262 38.3655 ZM 173.0497 28.6341 C 172.7961 27.444 172.34 26.5214 171.6866 25.8818 C 170.8041 25.0198 169.6445 24.601 168.1427 24.601 C 166.7962 24.601 165.8305 24.9894 164.9126 25.8993 C 164.2568 26.5494 163.7813 27.4663 163.4904 28.6341 L 173.0497 28.6341 Z" fill="#ff5669"/>				<path d="M 151.8056 11.3085 C 151.8056 8.6934 149.6935 6.5731 147.0879 6.5731 C 144.4823 6.5731 142.3698 8.6934 142.3698 11.3085 C 142.3698 13.9236 144.4823 16.0439 147.0879 16.0439 C 149.6935 16.0439 151.8056 13.9236 151.8056 11.3085 Z" fill="#ff5669"/>				<path d="M 147.0169 18.4624 C 144.5278 18.4624 142.4904 20.3476 142.4904 22.6522 L 142.4904 29.0538 L 142.4904 39.358 L 142.4904 42.1099 C 142.4904 44.4144 144.5278 46.2996 147.0169 46.2996 C 149.5066 46.2996 151.5435 44.4144 151.5435 42.1099 L 151.5435 39.358 L 151.5435 29.0538 L 151.5435 22.6522 C 151.5435 20.3476 149.5066 18.4624 147.0169 18.4624 Z" fill="#ff5669"/>				<path d="M 205 20.3956 C 205 18.3442 203.1216 16.6655 200.8255 16.6655 L 200.9509 16.6655 L 199.6492 16.6655 C 198.1409 16.089 197.0626 15.6649 197.0626 12.5874 L 197.0626 10.8113 C 197.0626 8.7091 195.2291 6.9891 192.9888 6.9891 C 190.748 6.9891 188.9146 8.7091 188.9146 10.8113 L 188.9146 12.5874 C 188.9146 15.6649 187.8363 16.089 186.3279 16.6655 L 185.0273 16.6655 L 184.9184 16.6655 C 182.6227 16.6655 180.7439 18.3442 180.7439 20.3956 C 180.7439 20.4108 180.7491 20.4241 180.7491 20.4393 C 180.7491 20.454 180.7439 20.4678 180.7439 20.483 C 180.7439 22.5344 182.6227 24.213 184.9184 24.213 L 185.0277 24.213 L 186.3289 24.213 C 187.8373 24.7895 188.9156 26.1334 188.9156 27.7171 L 188.9156 42.6782 C 188.9156 44.7805 190.7489 46.5 192.9893 46.5 C 195.2301 46.5 197.0635 44.7805 197.0635 42.6782 L 197.0635 27.7171 C 197.0635 26.1334 198.1418 24.7895 199.6502 24.213 L 200.9509 24.213 L 200.8255 24.213 C 203.1216 24.213 205 22.5344 205 20.483 C 205 20.4678 204.9953 20.454 204.9953 20.4393 C 204.9953 20.4241 205 20.4108 205 20.3956 Z" fill="#ff5669"/>			</g>			<path d="M 92.6314 38.4791 C 98.4175 35.0087 102.047 30.0245 102.047 24.4848 C 102.047 13.9997 89.053 5.5 73.0234 5.5 C 56.9944 5.5 44 13.9997 44 24.4848 C 44 34.9693 56.9944 43.469 73.0234 43.469 C 77.8102 43.469 82.3217 42.7063 86.3017 41.3639 C 91.2399 46.5575 99.2199 44.8884 99.2199 44.8884 C 94.6829 43.383 93.1429 40.5101 92.6314 38.4791 Z" fill="#ff5669"/>			<path d="M 71.2972 25.0797 C 70.9901 24.8699 69.609 24.3997 69.469 24.3456 C 69.609 24.2919 70.9901 23.8214 71.2972 23.6119 C 71.7826 23.2805 71.6388 23.5208 72.3812 22.8051 C 73.124 22.09 73.495 21.1246 73.495 19.9099 C 73.495 19.0224 73.3071 17.9995 72.9314 17.328 C 72.5563 16.6566 72.0504 16.101 71.4155 15.6612 C 70.6641 15.1337 70.2085 14.9546 69.4254 14.778 C 68.6817 14.6099 67.5262 14.4422 66.1395 14.4422 L 60.7135 14.4422 C 59.2993 14.4422 58.1424 15.476 58.1424 16.7396 L 58.1424 18.6933 L 58.1424 29.9984 L 58.1424 31.952 C 58.1424 33.2156 59.2993 34.2495 60.7135 34.2495 L 66.1395 34.2495 C 67.5262 34.2495 68.4106 34.2029 69.1482 34.002 C 70.0419 33.7589 70.6641 33.5576 71.4155 33.03 C 72.0504 32.5907 72.5563 32.0346 72.9314 31.3632 C 73.3071 30.6922 73.495 29.6688 73.495 28.7818 C 73.495 27.5671 73.124 26.6012 72.3812 25.8861 C 71.6388 25.1705 71.7826 25.4107 71.2972 25.0797 ZM 66.6069 30.79 C 65.7799 31.0369 62.8544 30.8295 62.8544 30.8295 L 62.8544 26.0457 C 62.8544 26.0457 65.8391 25.9169 66.43 26.0457 C 67.0209 26.1743 68.5435 26.3452 68.5435 28.2708 C 68.5435 30.1969 67.4344 30.5426 66.6069 30.79 ZM 66.6069 22.5573 C 65.8391 22.686 62.8544 22.6456 62.8544 22.6456 L 62.8544 17.8618 C 62.8544 17.8618 65.6616 17.7226 66.43 17.9107 C 67.1979 18.0982 68.5435 18.1614 68.5435 20.0875 C 68.5435 22.0131 67.3754 22.4291 66.6069 22.5573 Z" fill="#ffffff"/>			<path d="M 84.2278 30.063 C 84.3933 29.9699 84.5239 29.8959 84.6341 29.7985 C 84.8844 29.5796 85.3121 29.0952 85.7115 28.7177 C 86.0313 28.4404 86.397 28.2077 86.8787 28.2077 C 87.3878 28.2077 87.8174 28.3596 88.1548 28.6593 C 88.4046 28.8815 88.7022 29.288 88.7022 29.9652 C 88.7022 30.3916 88.5564 30.8475 88.2583 31.3584 C 87.983 31.83 87.5723 32.2816 87.0373 32.699 C 86.5105 33.1102 85.8496 33.4526 85.0717 33.7171 C 84.2963 33.9811 83.4007 34.115 82.4103 34.115 C 80.1917 34.115 78.5372 33.4744 77.2048 32.0997 C 75.9132 30.7687 75.2579 28.958 75.2579 26.719 C 75.2579 25.6752 75.4164 24.6894 75.7282 23.79 C 76.0461 22.8716 76.5197 22.07 77.1349 21.4086 C 77.6846 20.8159 78.2595 20.3686 79.2336 19.9859 C 80.3105 19.5628 81.244 19.3657 82.1705 19.3657 C 83.4594 19.3657 84.6402 19.5722 85.7682 20.2399 C 86.7907 20.8449 87.6145 21.6579 88.1287 22.6266 C 88.636 23.5825 88.7296 24.4596 88.7774 25.4601 C 88.8267 26.4958 88.3038 27.0808 87.8094 27.3368 C 87.2336 27.636 86.4784 27.7813 85.5009 27.7813 L 79.7466 27.7813 C 79.756 28.3763 79.951 29.1532 80.1558 29.4006 C 80.1558 29.4006 80.7794 30.3674 82.0829 30.4814 C 83.4433 30.6001 84.2278 30.063 84.2278 30.063 ZM 84.8905 24.791 C 84.7534 24.1462 84.5059 23.6466 84.1519 23.2999 C 83.6741 22.8331 83.0457 22.6062 82.2325 22.6062 C 81.5028 22.6062 80.9795 22.8165 80.4823 23.3094 C 80.127 23.6618 79.8696 24.1585 79.712 24.791 L 84.8905 24.791 Z" fill="#ffffff"/>		</g>	</g></svg>